999
dxfrw 0.5.10
0
SECTION
2
HEADER
9
$ACADVER
1
AC1021
9
$HANDSEED
5
20000
9
$DWGCODEPAGE
3
ANSI_1252
9
$INSBASE
10
0
20
0
30
0
9
$EXTMIN
10
-250.21949898
20
-352.85974949
30
0
9
$EXTMAX
10
189.163368372
20
52.8597494901
30
0
9
$LIMMIN
10
0
20
0
9
$LIMMAX
10
420
20
297
9
$ORTHOMODE
70
0
9
$LTSCALE
40
1
9
$TEXTSTYLE
7
STANDARD
9
$CLAYER
8
0
9
$DIMASZ
40
2.5
9
$DIMLFAC
40
1
9
$DIMSCALE
40
1
9
$DIMEXO
40
0.625
9
$DIMEXE
40
1.25
9
$DIMTXT
40
2.5
9
$DIMTSZ
40
0
9
$DIMAUNIT
70
0
9
$DIMADEC
70
0
9
$DIMLUNIT
70
2
9
$DIMSTYLE
2
STANDARD
9
$DIMGAP
40
0.625
9
$DIMTIH
70
0
9
$LUNITS
70
2
9
$LUPREC
70
4
9
$AUNITS
70
0
9
$AUPREC
70
2
9
$SPLINESEGS
70
8
9
$GRIDMODE
70
1
9
$SNAPSTYLE
70
0
9
$PINSBASE
10
0
20
0
30
0
9
$PLIMMIN
10
0
20
0
9
$PLIMMAX
10
210
20
297
9
$INSUNITS
70
4
9
$PSVPSCALE
40
1
0
ENDSEC
0
SECTION
2
CLASSES
0
ENDSEC
0
SECTION
2
TABLES
0
TABLE
2
VPORT
5
8
330
0
100
AcDbSymbolTable
70
1
0
VPORT
5
31
330
2
100
AcDbSymbolTableRecord
100
AcDbViewportTableRecord
2
*ACTIVE
70
0
10
0
20
0
11
1
21
1
12
49.8984764995
22
-3.00122693936
13
0
23
0
14
10
24
10
15
10
25
10
16
0
26
0
36
1
17
0
27
0
37
0
40
6.35429759964
41
1.74197120709
42
50
43
0
44
0
50
0
51
0
71
0
72
100
73
1
74
3
75
0
76
1
77
0
78
0
281
0
65
1
110
0
120
0
130
0
111
1
121
0
131
0
112
0
122
1
132
0
79
0
146
0
348
10020
60
7
61
5
292
1
282
1
141
0
142
0
63
250
421
3358443
0
ENDTAB
0
TABLE
2
LTYPE
5
5
330
0
100
AcDbSymbolTable
70
4
0
LTYPE
5
14
330
5
100
AcDbSymbolTableRecord
100
AcDbLinetypeTableRecord
2
ByBlock
70
0
3

72
65
73
0
40
0
0
LTYPE
5
15
330
5
100
AcDbSymbolTableRecord
100
AcDbLinetypeTableRecord
2
ByLayer
70
0
3

72
65
73
0
40
0
0
LTYPE
5
16
330
5
100
AcDbSymbolTableRecord
100
AcDbLinetypeTableRecord
2
Continuous
70
0
3
Solid line
72
65
73
0
40
0
0
LTYPE
5
32
330
5
100
AcDbSymbolTableRecord
100
AcDbLinetypeTableRecord
2
DOT
70
0
3
Dot . . . . . . . . . . . . . . . . . . . . . .
72
65
73
2
40
6.35
49
0
74
0
49
-6.35
74
0
0
LTYPE
5
33
330
5
100
AcDbSymbolTableRecord
100
AcDbLinetypeTableRecord
2
DOT2
70
0
3
Dot (.5x) .....................................
72
65
73
2
40
3.175
49
0
74
0
49
-3.175
74
0
0
LTYPE
5
34
330
5
100
AcDbSymbolTableRecord
100
AcDbLinetypeTableRecord
2
DOTX2
70
0
3
Dot (2x) .  .  .  .  .  .  .  .  .  .  .  .  .
72
65
73
2
40
12.7
49
0
74
0
49
-12.7
74
0
0
LTYPE
5
35
330
5
100
AcDbSymbolTableRecord
100
AcDbLinetypeTableRecord
2
DASHED
70
0
3
Dot . . . . . . . . . . . . . . . . . . . . . .
72
65
73
2
40
19.05
49
12.7
74
0
49
-6.35
74
0
0
LTYPE
5
36
330
5
100
AcDbSymbolTableRecord
100
AcDbLinetypeTableRecord
2
DASHED2
70
0
3
Dashed (.5x) _ _ _ _ _ _ _ _ _ _ _ _ _ _ _ _ _
72
65
73
2
40
9.525
49
6.35
74
0
49
-3.175
74
0
0
LTYPE
5
37
330
5
100
AcDbSymbolTableRecord
100
AcDbLinetypeTableRecord
2
DASHEDX2
70
0
3
Dashed (2x) ____  ____  ____  ____  ____  ___
72
65
73
2
40
38.1
49
25.4
74
0
49
-12.7
74
0
0
LTYPE
5
38
330
5
100
AcDbSymbolTableRecord
100
AcDbLinetypeTableRecord
2
DASHDOT
70
0
3
Dash dot __ . __ . __ . __ . __ . __ . __ . __
72
65
73
4
40
25.4
49
12.7
74
0
49
-6.35
74
0
49
0
74
0
49
-6.35
74
0
0
LTYPE
5
39
330
5
100
AcDbSymbolTableRecord
100
AcDbLinetypeTableRecord
2
DASHDOT2
70
0
3
Dash dot (.5x) _._._._._._._._._._._._._._._.
72
65
73
4
40
12.7
49
6.35
74
0
49
-3.175
74
0
49
0
74
0
49
-3.175
74
0
0
LTYPE
5
3A
330
5
100
AcDbSymbolTableRecord
100
AcDbLinetypeTableRecord
2
DASHDOTX2
70
0
3
Dash dot (2x) ____  .  ____  .  ____  .  ___
72
65
73
4
40
50.8
49
25.4
74
0
49
-12.7
74
0
49
0
74
0
49
-12.7
74
0
0
LTYPE
5
3B
330
5
100
AcDbSymbolTableRecord
100
AcDbLinetypeTableRecord
2
DIVIDE
70
0
3
Divide ____ . . ____ . . ____ . . ____ . . ____
72
65
73
6
40
31.75
49
12.7
74
0
49
-6.35
74
0
49
0
74
0
49
-6.35
74
0
49
0
74
0
49
-6.35
74
0
0
LTYPE
5
3C
330
5
100
AcDbSymbolTableRecord
100
AcDbLinetypeTableRecord
2
DIVIDE2
70
0
3
Divide (.5x) __..__..__..__..__..__..__..__.._
72
65
73
6
40
15.875
49
6.35
74
0
49
-3.175
74
0
49
0
74
0
49
-3.175
74
0
49
0
74
0
49
-3.175
74
0
0
LTYPE
5
3D
330
5
100
AcDbSymbolTableRecord
100
AcDbLinetypeTableRecord
2
DIVIDEX2
70
0
3
Divide (2x) ________  .  .  ________  .  .  _
72
65
73
6
40
63.5
49
25.4
74
0
49
-12.7
74
0
49
0
74
0
49
-12.7
74
0
49
0
74
0
49
-12.7
74
0
0
LTYPE
5
3E
330
5
100
AcDbSymbolTableRecord
100
AcDbLinetypeTableRecord
2
BORDER
70
0
3
Border __ __ . __ __ . __ __ . __ __ . __ __ .
72
65
73
6
40
44.45
49
12.7
74
0
49
-6.35
74
0
49
12.7
74
0
49
-6.35
74
0
49
0
74
0
49
-6.35
74
0
0
LTYPE
5
3F
330
5
100
AcDbSymbolTableRecord
100
AcDbLinetypeTableRecord
2
BORDER2
70
0
3
Border (.5x) __.__.__.__.__.__.__.__.__.__.__.
72
65
73
6
40
22.225
49
6.35
74
0
49
-3.175
74
0
49
6.35
74
0
49
-3.175
74
0
49
0
74
0
49
-3.175
74
0
0
LTYPE
5
40
330
5
100
AcDbSymbolTableRecord
100
AcDbLinetypeTableRecord
2
BORDERX2
70
0
3
Border (2x) ____  ____  .  ____  ____  .  ___
72
65
73
6
40
88.9
49
25.4
74
0
49
-12.7
74
0
49
25.4
74
0
49
-12.7
74
0
49
0
74
0
49
-12.7
74
0
0
LTYPE
5
41
330
5
100
AcDbSymbolTableRecord
100
AcDbLinetypeTableRecord
2
CENTER
70
0
3
Center ____ _ ____ _ ____ _ ____ _ ____ _ ____
72
65
73
4
40
50.8
49
31.75
74
0
49
-6.35
74
0
49
6.35
74
0
49
-6.35
74
0
0
LTYPE
5
42
330
5
100
AcDbSymbolTableRecord
100
AcDbLinetypeTableRecord
2
CENTER2
70
0
3
Center (.5x) ___ _ ___ _ ___ _ ___ _ ___ _ ___
72
65
73
4
40
28.575
49
19.05
74
0
49
-3.175
74
0
49
3.175
74
0
49
-3.175
74
0
0
LTYPE
5
43
330
5
100
AcDbSymbolTableRecord
100
AcDbLinetypeTableRecord
2
CENTERX2
70
0
3
Center (2x) ________  __  ________  __  _____
72
65
73
4
40
101.6
49
63.5
74
0
49
-12.7
74
0
49
12.7
74
0
49
-12.7
74
0
0
ENDTAB
0
TABLE
2
LAYER
5
2
330
0
100
AcDbSymbolTable
70
1
0
LAYER
5
10
330
2
100
AcDbSymbolTableRecord
100
AcDbLayerTableRecord
2
0
70
0
62
7
6
CONTINUOUS
370
0
390
F
0
ENDTAB
0
TABLE
2
STYLE
5
3
330
0
100
AcDbSymbolTable
70
3
0
STYLE
5
44
330
2
100
AcDbSymbolTableRecord
100
AcDbTextStyleTableRecord
2
Standard
70
0
40
0
41
1
50
0
71
0
42
1
3
txt
4

0
ENDTAB
0
TABLE
2
VIEW
5
6
330
0
100
AcDbSymbolTable
70
0
0
ENDTAB
0
TABLE
2
UCS
5
7
330
0
100
AcDbSymbolTable
70
0
0
ENDTAB
0
TABLE
2
APPID
5
9
330
0
100
AcDbSymbolTable
70
1
0
APPID
5
12
330
9
100
AcDbSymbolTableRecord
100
AcDbRegAppTableRecord
2
ACAD
70
0
0
ENDTAB
0
TABLE
2
DIMSTYLE
5
A
330
0
100
AcDbSymbolTable
70
1
100
AcDbDimStyleTable
71
1
0
DIMSTYLE
105
45
330
A
100
AcDbSymbolTableRecord
100
AcDbDimStyleTableRecord
2
Standard
70
0
40
1
41
2.5
42
0.625
43
0.38
44
1.25
45
0
46
0
47
0
48
0
140
2.5
141
0.09
142
0
143
25.4
144
1
145
0
146
1
147
0.625
148
0
71
0
72
0
73
0
74
1
75
0
76
0
77
0
78
0
79
0
170
0
171
2
172
0
173
0
174
0
175
0
176
0
177
0
178
0
179
0
271
4
272
4
273
2
274
2
275
0
276
0
277
2
278
46
279
0
280
0
281
0
282
0
283
1
284
0
285
0
286
0
288
0
289
3
340
Standard
341

371
-2
372
-2
0
ENDTAB
0
TABLE
2
BLOCK_RECORD
5
1
330
0
100
AcDbSymbolTable
70
2
0
BLOCK_RECORD
5
1F
330
1
100
AcDbSymbolTableRecord
100
AcDbBlockTableRecord
2
*Model_Space
70
0
280
1
281
0
0
BLOCK_RECORD
5
1E
330
1
100
AcDbSymbolTableRecord
100
AcDbBlockTableRecord
2
*Paper_Space
70
0
280
1
281
0
0
ENDTAB
0
ENDSEC
0
SECTION
2
BLOCKS
0
BLOCK
5
20
330
1F
100
AcDbEntity
8
0
100
AcDbBlockBegin
2
*Model_Space
70
0
10
0
20
0
30
0
3
*Model_Space
1

0
ENDBLK
5
21
330
1F
100
AcDbEntity
8
0
100
AcDbBlockEnd
0
BLOCK
5
1C
330
1B
100
AcDbEntity
8
0
100
AcDbBlockBegin
2
*Paper_Space
70
0
10
0
20
0
30
0
3
*Paper_Space
1

0
ENDBLK
5
1D
330
1F
100
AcDbEntity
8
0
100
AcDbBlockEnd
0
ENDSEC
0
SECTION
2
ENTITIES
0
LINE
5
46
100
AcDbEntity
8
0
6
ByLayer
62
256
370
-1
100
AcDbLine
10
77.5
20
1.75
11
77.5
21
0.5
0
LINE
5
47
100
AcDbEntity
8
0
6
ByLayer
62
256
370
-1
100
AcDbLine
10
43
20
1.75
11
77.5
21
1.75
0
LINE
5
48
100
AcDbEntity
8
0
6
ByLayer
62
256
370
-1
100
AcDbLine
10
43
20
6.75
11
43
21
1.75
0
LINE
5
49
100
AcDbEntity
8
0
6
ByLayer
62
256
370
-1
100
AcDbLine
10
43
20
0.5
11
77.5
21
0.5
0
LINE
5
4A
100
AcDbEntity
8
0
6
ByLayer
62
256
370
-1
100
AcDbLine
10
43
20
0.5
11
43
21
-5
0
LINE
5
4B
100
AcDbEntity
8
0
6
ByLayer
62
256
370
-1
100
AcDbLine
10
152.5
20
-150
11
157.5
21
-150
0
LINE
5
4C
100
AcDbEntity
8
0
6
ByLayer
62
256
370
-1
100
AcDbLine
10
43
20
-5
11
77.1813235973
21
-5
0
ARC
5
4D
100
AcDbEntity
8
0
6
ByLayer
62
256
370
-1
100
AcDbCircle
10
77.1813235973
20
-6
40
1
100
AcDbArc
50
54.5966910443
51
90
0
ARC
5
4E
100
AcDbEntity
8
0
6
ByLayer
62
256
370
-1
100
AcDbCircle
10
-25.1666666664
20
-150
40
177.666666666
100
AcDbArc
50
0
51
54.596691318
0
LINE
5
4F
100
AcDbEntity
8
0
6
ByLayer
62
256
370
-1
100
AcDbLine
10
43
20
6.75
11
78.9480569846
21
6.75
0
ARC
5
50
100
AcDbEntity
8
0
6
ByLayer
62
256
370
-1
100
AcDbCircle
10
78.9480569846
20
-8.25
40
15
100
AcDbArc
50
48.2970340319
51
90
0
ARC
5
51
100
AcDbEntity
8
0
6
ByLayer
62
256
370
-1
100
AcDbCircle
10
-47.3597494901
20
-150
40
204.85974949
100
AcDbArc
50
0
51
48.2970338338
0
LINE
5
52
100
AcDbEntity
8
0
6
ByLayer
62
256
370
-1
100
AcDbLine
10
79.5
20
1.75
11
79.5
21
0.5
0
ARC
5
53
100
AcDbEntity
8
0
6
ByLayer
62
256
370
-1
100
AcDbCircle
10
77.5
20
0.5
40
2
100
AcDbArc
50
317.656596692
51
0
0
ARC
5
54
100
AcDbEntity
8
0
6
ByLayer
62
256
370
-1
100
AcDbCircle
10
80.4564842209
20
-2.19429045424
40
2
100
AcDbArc
50
137.656596692
51
234.450094687
0
ARC
5
55
100
AcDbEntity
8
0
6
ByLayer
62
256
370
-1
100
AcDbCircle
10
81.4355691301
20
2.46504938514
40
2
100
AcDbArc
50
76.9302256314
51
190.297678278
0
ARC
5
56
100
AcDbEntity
8
0
6
ByLayer
62
256
370
-1
100
AcDbCircle
10
77.5
20
1.75
40
2
100
AcDbArc
50
0
51
10.2980441053
0
ARC
5
57
100
AcDbEntity
8
0
6
ByLayer
62
256
370
-1
100
AcDbCircle
10
78.9480569846
20
-8.25
40
13
100
AcDbArc
50
48.2970307046
51
76.9301427117
0
ARC
5
58
100
AcDbEntity
8
0
6
ByLayer
62
256
370
-1
100
AcDbCircle
10
146.381854896
20
-93.3294680272
40
1
100
AcDbArc
50
198.280814989
51
16.3045011282
0
ARC
5
59
100
AcDbEntity
8
0
6
ByLayer
62
256
370
-1
100
AcDbCircle
10
80.5603140166
20
-3.5
40
1
100
AcDbArc
50
234.182548254
51
270
0
ARC
5
5A
100
AcDbEntity
8
0
6
ByLayer
62
256
370
-1
100
AcDbCircle
10
84.5976009454
20
-6.5
40
1
100
AcDbArc
50
90
51
232.587344397
0
LINE
5
5B
100
AcDbEntity
8
0
6
ByLayer
62
256
370
-1
100
AcDbLine
10
80.5603140166
20
-4.5
11
91.5110842519
21
-4.5
0
ARC
5
5C
100
AcDbEntity
8
0
6
ByLayer
62
256
370
-1
100
AcDbCircle
10
91.5110842519
20
-3.5
40
1
100
AcDbArc
50
270
51
46.5313931269
0
LINE
5
5D
100
AcDbEntity
8
0
6
ByLayer
62
256
370
-1
100
AcDbLine
10
84.5976009454
20
-5.5
11
94.4364383942
21
-5.5
0
ARC
5
5E
100
AcDbEntity
8
0
6
ByLayer
62
256
370
-1
100
AcDbCircle
10
94.4364383942
20
-6.5
40
1
100
AcDbArc
50
0
51
90
0
ARC
5
5F
100
AcDbEntity
8
0
6
ByLayer
62
256
370
-1
100
AcDbCircle
10
97.4364383942
20
-9.35355518753
40
1
100
AcDbArc
50
44.1670970329
51
180
0
LINE
5
60
100
AcDbEntity
8
0
6
ByLayer
62
256
370
-1
100
AcDbLine
10
95.4364383942
20
-6.5
11
95.4364383942
21
-14.5912052184
0
ARC
5
61
100
AcDbEntity
8
0
6
ByLayer
62
256
370
-1
100
AcDbCircle
10
94.4364383942
20
-14.5912052184
40
1
100
AcDbArc
50
228.546667217
51
0
0
LINE
5
62
100
AcDbEntity
8
0
6
ByLayer
62
256
370
-1
100
AcDbLine
10
96.4364383942
20
-9.35355518753
11
96.4364383942
21
-17.1386064235
0
ARC
5
63
100
AcDbEntity
8
0
6
ByLayer
62
256
370
-1
100
AcDbCircle
10
97.4364383942
20
-17.1386064235
40
1
100
AcDbArc
50
180
51
270
0
LINE
5
64
100
AcDbEntity
8
0
6
ByLayer
62
256
370
-1
100
AcDbLine
10
97.4364383942
20
-18.1386064235
11
104.611328551
21
-18.1386064235
0
ARC
5
65
100
AcDbEntity
8
0
6
ByLayer
62
256
370
-1
100
AcDbCircle
10
104.611328551
20
-17.1386064235
40
1
100
AcDbArc
50
270
51
41.1617230976
0
ARC
5
66
100
AcDbEntity
8
0
6
ByLayer
62
256
370
-1
100
AcDbCircle
10
107.034386833
20
-20.1386064235
40
1
100
AcDbArc
50
0
51
90
0
LINE
5
67
100
AcDbEntity
8
0
6
ByLayer
62
256
370
-1
100
AcDbLine
10
100.437723793
20
-19.1386064235
11
107.034386833
21
-19.1386064235
0
ARC
5
68
100
AcDbEntity
8
0
6
ByLayer
62
256
370
-1
100
AcDbCircle
10
100.437723793
20
-20.1386064235
40
1
100
AcDbArc
50
90
51
225.95467086
0
LINE
5
69
100
AcDbEntity
8
0
6
ByLayer
62
256
370
-1
100
AcDbLine
10
108.034386833
20
-20.1386064235
11
108.034386833
21
-26.8605428869
0
ARC
5
6A
100
AcDbEntity
8
0
6
ByLayer
62
256
370
-1
100
AcDbCircle
10
107.034386833
20
-26.8605428869
40
1
100
AcDbArc
50
222.967524102
51
0
0
ARC
5
6B
100
AcDbEntity
8
0
6
ByLayer
62
256
370
-1
100
AcDbCircle
10
110.034386833
20
-23.6099516756
40
1
100
AcDbArc
50
38.7650302115
51
180
0
LINE
5
6C
100
AcDbEntity
8
0
6
ByLayer
62
256
370
-1
100
AcDbLine
10
109.034386833
20
-23.6099516756
11
109.034386833
21
-29.9849964311
0
ARC
5
6D
100
AcDbEntity
8
0
6
ByLayer
62
256
370
-1
100
AcDbCircle
10
110.034386833
20
-29.9849964311
40
1
100
AcDbArc
50
180
51
270
0
LINE
5
6E
100
AcDbEntity
8
0
6
ByLayer
62
256
370
-1
100
AcDbLine
10
110.034386833
20
-30.9849964311
11
114.947851634
21
-30.9849964311
0
ARC
5
6F
100
AcDbEntity
8
0
6
ByLayer
62
256
370
-1
100
AcDbCircle
10
114.947851634
20
-29.9849964311
40
1
100
AcDbArc
50
270
51
36.4803084565
0
ARC
5
70
100
AcDbEntity
8
0
6
ByLayer
62
256
370
-1
100
AcDbCircle
10
112.484825821
20
-32.9849964311
40
1
100
AcDbArc
50
90
51
220.367251363
0
LINE
5
71
100
AcDbEntity
8
0
6
ByLayer
62
256
370
-1
100
AcDbLine
10
112.484825821
20
-31.9849964311
11
117.010655921
21
-31.9849964311
0
ARC
5
72
100
AcDbEntity
8
0
6
ByLayer
62
256
370
-1
100
AcDbCircle
10
117.010655921
20
-32.9849964311
40
1
100
AcDbArc
50
0
51
90
0
LINE
5
73
100
AcDbEntity
8
0
6
ByLayer
62
256
370
-1
100
AcDbLine
10
118.010655921
20
-32.9849964311
11
118.010655921
21
-38.527790969
0
ARC
5
74
100
AcDbEntity
8
0
6
ByLayer
62
256
370
-1
100
AcDbCircle
10
117.010655921
20
-38.527790969
40
1
100
AcDbArc
50
218.097740916
51
0
0
ARC
5
75
100
AcDbEntity
8
0
6
ByLayer
62
256
370
-1
100
AcDbCircle
10
120.010655921
20
-37.1527321698
40
1
100
AcDbArc
50
33.9892941498
51
180
0
LINE
5
76
100
AcDbEntity
8
0
6
ByLayer
62
256
370
-1
100
AcDbLine
10
119.010655921
20
-37.1527321698
11
119.010655921
21
-42.2992243352
0
ARC
5
77
100
AcDbEntity
8
0
6
ByLayer
62
256
370
-1
100
AcDbCircle
10
120.010655921
20
-42.2992243352
40
1
100
AcDbArc
50
180
51
270
0
LINE
5
78
100
AcDbEntity
8
0
6
ByLayer
62
256
370
-1
100
AcDbLine
10
120.010655921
20
-43.2992243352
11
123.367815318
21
-43.2992243352
0
ARC
5
79
100
AcDbEntity
8
0
6
ByLayer
62
256
370
-1
100
AcDbCircle
10
123.367815318
20
-42.2992243352
40
1
100
AcDbArc
50
270
51
32.2451280504
0
ARC
5
7A
100
AcDbEntity
8
0
6
ByLayer
62
256
370
-1
100
AcDbCircle
10
122.068492245
20
-45.2992243352
40
1
100
AcDbArc
50
90
51
215.417111675
0
LINE
5
7B
100
AcDbEntity
8
0
6
ByLayer
62
256
370
-1
100
AcDbLine
10
122.068492245
20
-44.2992243352
11
125.152298111
21
-44.2992243352
0
ARC
5
7C
100
AcDbEntity
8
0
6
ByLayer
62
256
370
-1
100
AcDbCircle
10
125.152298111
20
-45.2992243352
40
1
100
AcDbArc
50
0
51
90
0
ARC
5
7D
100
AcDbEntity
8
0
6
ByLayer
62
256
370
-1
100
AcDbCircle
10
128.152298111
20
-50.2860109561
40
1
100
AcDbArc
50
29.6022875975
51
180
0
LINE
5
7E
100
AcDbEntity
8
0
6
ByLayer
62
256
370
-1
100
AcDbLine
10
126.152298111
20
-45.2992243352
11
126.152298111
21
-49.7769823215
0
ARC
5
7F
100
AcDbEntity
8
0
6
ByLayer
62
256
370
-1
100
AcDbCircle
10
125.152298111
20
-49.7769823215
40
1
100
AcDbArc
50
213.69280507
51
0
0
LINE
5
80
100
AcDbEntity
8
0
6
ByLayer
62
256
370
-1
100
AcDbLine
10
127.152298111
20
-50.2860109561
11
127.152298111
21
-54.3045663974
0
ARC
5
81
100
AcDbEntity
8
0
6
ByLayer
62
256
370
-1
100
AcDbCircle
10
128.152298111
20
-54.3045663974
40
1
100
AcDbArc
50
180
51
270
0
ARC
5
82
100
AcDbEntity
8
0
6
ByLayer
62
256
370
-1
100
AcDbCircle
10
129.907512466
20
-57.3045663974
40
1
100
AcDbArc
50
90
51
210.86882889
0
LINE
5
83
100
AcDbEntity
8
0
6
ByLayer
62
256
370
-1
100
AcDbLine
10
129.907512466
20
-56.3045663974
11
131.932998569
21
-56.3045663974
0
ARC
5
84
100
AcDbEntity
8
0
6
ByLayer
62
256
370
-1
100
AcDbCircle
10
131.932998569
20
-57.3045663974
40
1
100
AcDbArc
50
0
51
90
0
LINE
5
85
100
AcDbEntity
8
0
6
ByLayer
62
256
370
-1
100
AcDbLine
10
128.152298111
20
-55.3045663974
11
130.375284906
21
-55.3045663974
0
ARC
5
86
100
AcDbEntity
8
0
6
ByLayer
62
256
370
-1
100
AcDbCircle
10
130.375284906
20
-54.3045663974
40
1
100
AcDbArc
50
270
51
28.2987448557
0
LINE
5
87
100
AcDbEntity
8
0
6
ByLayer
62
256
370
-1
100
AcDbLine
10
132.932998569
20
-57.3045663974
11
132.932998569
21
-60.7803854109
0
ARC
5
88
100
AcDbEntity
8
0
6
ByLayer
62
256
370
-1
100
AcDbCircle
10
131.932998569
20
-60.7803854109
40
1
100
AcDbArc
50
209.592991504
51
0
0
ARC
5
89
100
AcDbEntity
8
0
6
ByLayer
62
256
370
-1
100
AcDbCircle
10
134.932998569
20
-63.301023827
40
1
100
AcDbArc
50
25.4359002623
51
180
0
LINE
5
8A
100
AcDbEntity
8
0
6
ByLayer
62
256
370
-1
100
AcDbLine
10
133.932998569
20
-63.301023827
11
133.932998569
21
-66.2326069147
0
ARC
5
8B
100
AcDbEntity
8
0
6
ByLayer
62
256
370
-1
100
AcDbCircle
10
134.932998569
20
-66.2326069147
40
1
100
AcDbArc
50
180
51
270
0
LINE
5
8C
100
AcDbEntity
8
0
6
ByLayer
62
256
370
-1
100
AcDbLine
10
134.932998569
20
-67.2326069147
11
136.298580895
21
-67.2326069147
0
ARC
5
8D
100
AcDbEntity
8
0
6
ByLayer
62
256
370
-1
100
AcDbCircle
10
136.298580895
20
-66.2326069147
40
1
100
AcDbArc
50
270
51
24.5179428892
0
ARC
5
8E
100
AcDbEntity
8
0
6
ByLayer
62
256
370
-1
100
AcDbCircle
10
136.441107461
20
-69.2326069147
40
1
100
AcDbArc
50
90
51
206.554699498
0
LINE
5
8F
100
AcDbEntity
8
0
6
ByLayer
62
256
370
-1
100
AcDbLine
10
136.441107461
20
-68.2326069147
11
137.663368372
21
-68.2326069147
0
ARC
5
90
100
AcDbEntity
8
0
6
ByLayer
62
256
370
-1
100
AcDbCircle
10
137.663368372
20
-69.2326069147
40
1
100
AcDbArc
50
0
51
90
0
ARC
5
91
100
AcDbEntity
8
0
6
ByLayer
62
256
370
-1
100
AcDbCircle
10
140.663368372
20
-76.5516125874
40
1
100
AcDbArc
50
21.337350253
51
180
0
LINE
5
92
100
AcDbEntity
8
0
6
ByLayer
62
256
370
-1
100
AcDbLine
10
139.663368372
20
-76.5516125874
11
139.663368372
21
-78.3757006319
0
ARC
5
93
100
AcDbEntity
8
0
6
ByLayer
62
256
370
-1
100
AcDbCircle
10
140.663368372
20
-78.3757006319
40
1
100
AcDbArc
50
180
51
270
0
LINE
5
94
100
AcDbEntity
8
0
6
ByLayer
62
256
370
-1
100
AcDbLine
10
140.663368372
20
-79.3757006319
11
141.36576072
21
-79.3757006319
0
ARC
5
95
100
AcDbEntity
8
0
6
ByLayer
62
256
370
-1
100
AcDbCircle
10
141.36576072
20
-78.3757006319
40
1
100
AcDbArc
50
270
51
20.782541439
0
ARC
5
96
100
AcDbEntity
8
0
6
ByLayer
62
256
370
-1
100
AcDbCircle
10
142.559633281
20
-81.3757006319
40
1
100
AcDbArc
50
0
51
90
0
LINE
5
97
100
AcDbEntity
8
0
6
ByLayer
62
256
370
-1
100
AcDbLine
10
141.959483234
20
-80.3757006319
11
142.559633281
21
-80.3757006319
0
ARC
5
98
100
AcDbEntity
8
0
6
ByLayer
62
256
370
-1
100
AcDbCircle
10
141.959483234
20
-81.3757006319
40
1
100
AcDbArc
50
90
51
202.323728602
0
LINE
5
99
100
AcDbEntity
8
0
6
ByLayer
62
256
370
-1
100
AcDbLine
10
143.559633281
20
-81.3757006319
11
143.559633281
21
-82.8558807456
0
ARC
5
9A
100
AcDbEntity
8
0
6
ByLayer
62
256
370
-1
100
AcDbCircle
10
142.559633281
20
-82.8558807456
40
1
100
AcDbArc
50
201.81719194
51
0
0
ARC
5
9B
100
AcDbEntity
8
0
6
ByLayer
62
256
370
-1
100
AcDbCircle
10
-47.3597494901
20
-150
40
202.85974949
100
AcDbArc
50
16.3045016895
51
17.1161670598
0
ARC
5
9C
100
AcDbEntity
8
0
6
ByLayer
62
256
370
-1
100
AcDbCircle
10
145.559633281
20
-90.590655486
40
1
100
AcDbArc
50
17.1161670598
51
180
0
LINE
5
9D
100
AcDbEntity
8
0
6
ByLayer
62
256
370
-1
100
AcDbLine
10
144.559633281
20
-90.590655486
11
144.559633281
21
-90.8986044939
0
ARC
5
9E
100
AcDbEntity
8
0
6
ByLayer
62
256
370
-1
100
AcDbCircle
10
-25.1666666664
20
-150
40
179.666666666
100
AcDbArc
50
18.2808149889
51
19.0946398492
0
ARC
5
9F
100
AcDbEntity
8
0
6
ByLayer
62
256
370
-1
100
AcDbCircle
10
145.559633281
20
-90.8986044939
40
1
100
AcDbArc
50
180
51
199.094639849
0
LINE
5
A0
100
AcDbEntity
8
0
6
ByLayer
62
256
370
-1
100
AcDbLine
10
138.663368372
20
-69.2326069147
11
138.663368372
21
-71.7259676927
0
ARC
5
A1
100
AcDbEntity
8
0
6
ByLayer
62
256
370
-1
100
AcDbCircle
10
137.663368372
20
-71.7259676927
40
1
100
AcDbArc
50
205.674060849
51
0
0
ARC
5
A2
100
AcDbEntity
8
0
6
ByLayer
62
256
370
-1
100
AcDbCircle
10
-25.1666666664
20
-150
40
179.666666666
100
AcDbArc
50
54.1825480383
51
54.450094875
0
ARC
5
A3
100
AcDbEntity
8
0
6
ByLayer
62
256
370
-1
100
AcDbCircle
10
-47.3597494901
20
-150
40
202.85974949
100
AcDbArc
50
46.5313933551
51
48.297034247
0
ARC
5
A4
100
AcDbEntity
8
0
6
ByLayer
62
256
370
-1
100
AcDbCircle
10
-25.1666666664
20
-150
40
179.666666666
100
AcDbArc
50
48.5466671022
51
52.58734453
0
ARC
5
A5
100
AcDbEntity
8
0
6
ByLayer
62
256
370
-1
100
AcDbCircle
10
-47.3597494901
20
-150
40
202.85974949
100
AcDbArc
50
41.1617233943
51
44.1670973297
0
ARC
5
A6
100
AcDbEntity
8
0
6
ByLayer
62
256
370
-1
100
AcDbCircle
10
-25.1666666664
20
-150
40
179.666666666
100
AcDbArc
50
42.9675238947
51
45.9546708598
0
ARC
5
A7
100
AcDbEntity
8
0
6
ByLayer
62
256
370
-1
100
AcDbCircle
10
-47.3597494901
20
-150
40
202.85974949
100
AcDbArc
50
36.4803087914
51
38.7650304231
0
ARC
5
A8
100
AcDbEntity
8
0
6
ByLayer
62
256
370
-1
100
AcDbCircle
10
-47.3597494901
20
-150
40
202.85974949
100
AcDbArc
50
32.2451283262
51
33.9892943122
0
ARC
5
A9
100
AcDbEntity
8
0
6
ByLayer
62
256
370
-1
100
AcDbCircle
10
-47.3597494901
20
-150
40
202.85974949
100
AcDbArc
50
28.2987452304
51
29.6022872877
0
ARC
5
AA
100
AcDbEntity
8
0
6
ByLayer
62
256
370
-1
100
AcDbCircle
10
-47.3597494901
20
-150
40
202.85974949
100
AcDbArc
50
24.5179425932
51
25.4359006276
0
ARC
5
AB
100
AcDbEntity
8
0
6
ByLayer
62
256
370
-1
100
AcDbCircle
10
-47.3597494901
20
-150
40
202.85974949
100
AcDbArc
50
20.78254094
51
21.337350253
0
ARC
5
AC
100
AcDbEntity
8
0
6
ByLayer
62
256
370
-1
100
AcDbCircle
10
-25.1666666664
20
-150
40
179.666666666
100
AcDbArc
50
38.0977411897
51
40.367251563
0
ARC
5
AD
100
AcDbEntity
8
0
6
ByLayer
62
256
370
-1
100
AcDbCircle
10
-25.1666666664
20
-150
40
179.666666666
100
AcDbArc
50
33.6928056478
51
35.4171116749
0
ARC
5
AE
100
AcDbEntity
8
0
6
ByLayer
62
256
370
-1
100
AcDbCircle
10
-25.1666666664
20
-150
40
179.666666666
100
AcDbArc
50
29.5929918534
51
30.8688292441
0
ARC
5
AF
100
AcDbEntity
8
0
6
ByLayer
62
256
370
-1
100
AcDbCircle
10
-25.1666666664
20
-150
40
179.666666666
100
AcDbArc
50
25.6740608488
51
26.5546999786
0
ARC
5
B0
100
AcDbEntity
8
0
6
ByLayer
62
256
370
-1
100
AcDbCircle
10
-25.1666666664
20
-150
40
179.666666666
100
AcDbArc
50
21.8171926728
51
22.3237281371
0
ENDSEC
0
SECTION
2
OBJECTS
0
DICTIONARY
5
C
330
0
100
AcDbDictionary
281
1
3
ACAD_GROUP
350
D
0
DICTIONARY
5
D
330
C
100
AcDbDictionary
281
1
0
ENDSEC
0
EOF
